<?xml version="1.0" encoding="utf-8"?>
<!-- Generator: Adobe Illustrator 23.0.2, SVG Export Plug-In . SVG Version: 6.00 Build 0)  -->
<svg version="1.1" id="Layer_1" xmlns="http://www.w3.org/2000/svg" xmlns:xlink="http://www.w3.org/1999/xlink" x="0px" y="0px"
	 viewBox="0 0 78.27 48.87" style="enable-background:new 0 0 78.27 48.87;" xml:space="preserve">
<style type="text/css">
	.st0{fill:#FFFFFF;}
</style>
<path class="st0" d="M53.59,14.08V34.9h-3.64h0v-9.39h-9.48v9.39h-3.65V14.08h3.65v8.28h9.48v-8.28h0H53.59z M33.18,34.9L33.18,34.9
	h-3.65V14.08h3.65V34.9z M25.94,34.9L25.94,34.9h-3.85l-9.48-15.31h-0.09V34.9H9.06h0V14.08h0h3.85l0,0l9.51,15.34h0.06V14.08h3.47
	V34.9z M66.43,24.42L53.55,1.15H6.13c-2.37,0-4.29,1.92-4.29,4.29v38c0,2.37,1.92,4.28,4.29,4.28h47.39L66.43,24.42z"/>
<path class="st0" d="M56.74,47.72l12.91-23.31L56.78,1.15h3.22c1.76,0,3.91,1.27,4.76,2.81l11.31,20.46l-11.35,20.5
	c-0.85,1.54-3,2.8-4.76,2.8H56.74z"/>
</svg>
